<svg width="24" height="24" viewBox="0 0 24 24" fill="none" xmlns="http://www.w3.org/2000/svg">
<g clip-path="url(#clip0_47_4437)">
<path fill-rule="evenodd" clip-rule="evenodd" d="M12 23C18.0751 23 23 18.0751 23 12C23 5.92487 18.0751 1 12 1C5.92487 1 1 5.92487 1 12C1 18.0751 5.92487 23 12 23ZM12 24C18.6274 24 24 18.6274 24 12C24 5.37258 18.6274 0 12 0C5.37258 0 0 5.37258 0 12C0 18.6274 5.37258 24 12 24Z" fill="#292929"/>
<path d="M12.4279 5.75C14.0208 5.80505 15.5 6.35559 16.5809 7.787C18.2308 9.98917 18.9135 12.4116 17.4343 14.7789C15.1587 18.4125 12.0865 18.963 8.61617 16.926C6.22674 15.4946 5.54404 12.3565 6.28362 9.93413C7.02321 7.34658 9.41264 5.75 12.4279 5.75ZM8.90062 13.843C9.0713 14.1733 9.24196 14.4486 9.35575 14.7789C9.46953 15.0542 9.6971 15.1643 9.98155 15.1643C10.3229 15.1643 10.4936 15.0542 10.5505 14.7789C10.6074 14.4486 10.4367 14.3935 10.2091 14.3385C9.75399 14.2284 9.35575 13.898 8.90062 13.843C8.55928 13.1823 8.10414 12.5767 8.21792 11.7509C8.44549 10.5397 8.67306 9.27347 8.84373 8.11733C9.29886 8.00722 9.52643 8.11734 9.75399 8.2825C10.3798 8.66788 11.0056 8.88809 11.8021 8.66787C12.0865 8.61282 12.4279 8.66787 12.7692 8.72293C13.395 8.83304 13.9071 8.77797 14.4191 8.33754C15.0449 7.84205 15.3293 8.00723 15.3862 8.83304C15.4431 9.6038 15.3862 10.3746 15.7276 11.1453C16.2965 12.3565 15.6707 13.898 14.0777 14.3385C13.7933 14.3935 13.5657 14.5036 13.6795 14.889C13.8502 15.5497 13.7364 16.2654 14.0777 16.926C16.1827 15.9901 17.2067 14.7238 17.4912 12.7419C17.605 11.9161 17.4343 11.0352 17.2067 10.2644C15.9551 5.91515 12.4279 5.41967 9.12819 7.12636C7.81969 7.78701 7.02321 9.10832 6.68186 10.5948C6.3974 11.806 6.73876 12.9071 7.02321 14.0632C7.42145 15.3845 8.33171 16.2103 9.58332 16.7608C9.75399 16.8709 10.0384 17.0361 10.1522 16.7058C10.266 16.4305 10.1522 16.2103 9.75399 16.1553C9.18508 16.1002 8.61617 15.9901 8.44549 15.3845C8.33171 14.8339 7.87658 14.4486 7.59212 14.0632C8.04725 13.7879 8.50239 14.0081 8.90062 13.843Z" fill="#292929"/>
</g>
<defs>
<clipPath id="clip0_47_4437">
<rect width="24" height="24" fill="white"/>
</clipPath>
</defs>
</svg>
