<svg width="24" height="24" viewBox="0 0 24 24" fill="none" xmlns="http://www.w3.org/2000/svg">
<g clip-path="url(#clip0_47_4439)">
<path fill-rule="evenodd" clip-rule="evenodd" d="M12 23C18.0751 23 23 18.0751 23 12C23 5.92487 18.0751 1 12 1C5.92487 1 1 5.92487 1 12C1 18.0751 5.92487 23 12 23ZM12 24C18.6274 24 24 18.6274 24 12C24 5.37258 18.6274 0 12 0C5.37258 0 0 5.37258 0 12C0 18.6274 5.37258 24 12 24Z" fill="#292929"/>
<path d="M10.3613 13.6241C10.3613 12.7104 10.3613 11.8621 10.3613 10.9484C10.4265 9.77376 11.0791 9.18642 12.1233 9.64324C12.6454 9.83902 12.9717 9.90428 13.3632 9.7085C14.3421 9.18643 15.1905 9.57797 16.1041 9.90427C16.6914 10.1 17.0177 10.5569 17.2135 11.1442C17.7356 12.8409 17.7356 14.5377 17.6703 16.2344C17.6703 16.6912 17.4745 17.0175 16.9525 17.0828C16.822 17.0828 16.7567 17.0828 16.6262 17.1481C14.7989 17.4744 14.6031 17.3438 14.7989 15.5166C14.8642 14.7335 14.9947 13.9503 14.7989 13.1672C14.6684 12.7757 14.5379 12.3189 14.0158 12.2536C13.559 12.1883 13.2327 12.5146 12.9717 12.8409C12.7106 13.1672 12.6454 13.5588 12.6454 14.0156C12.6454 14.6682 12.6454 15.2555 12.6454 15.9081C12.6454 17.2133 12.5801 17.2786 11.4054 17.2133C10.296 17.2133 10.296 17.2133 10.296 16.1039C10.3613 15.3208 10.3613 14.4724 10.3613 13.6241Z" fill="#292929"/>
<path d="M6.77205 13.4939C6.77205 12.5802 6.77205 11.7319 6.77205 10.8182C6.77205 10.0351 7.22887 9.90461 7.88147 9.83936C8.59932 9.83936 8.72983 10.2309 8.72983 10.8182C8.86035 12.515 8.86035 14.2117 8.79509 15.9085C8.79509 16.4958 8.7951 17.2137 7.88147 17.2137C7.09835 17.2789 6.70679 16.9526 6.70679 16.1695C6.70679 15.2559 6.70679 14.277 6.70679 13.3634C6.70679 13.4939 6.77205 13.4939 6.77205 13.4939Z" fill="#292929"/>
<path d="M7.3594 6.25C8.33828 6.25 8.86037 6.64156 8.86037 7.22889C8.86037 7.94674 8.01199 8.79511 7.3594 8.79511C6.7068 8.79511 6.25 8.27304 6.25 7.55519C6.31526 6.70682 6.7068 6.25 7.3594 6.25Z" fill="#292929"/>
</g>
<defs>
<clipPath id="clip0_47_4439">
<rect width="24" height="24" fill="white"/>
</clipPath>
</defs>
</svg>
