<svg width="24" height="24" viewBox="0 0 24 24" fill="none" xmlns="http://www.w3.org/2000/svg">
<path fill-rule="evenodd" clip-rule="evenodd" d="M12 23C18.0751 23 23 18.0751 23 12C23 5.92487 18.0751 1 12 1C5.92487 1 1 5.92487 1 12C1 18.0751 5.92487 23 12 23ZM12 24C18.6274 24 24 18.6274 24 12C24 5.37258 18.6274 0 12 0C5.37258 0 0 5.37258 0 12C0 18.6274 5.37258 24 12 24Z" fill="white"/>
<path d="M11.9151 17.7589C10.8615 17.7589 9.80796 17.822 8.81636 17.7589C7.39093 17.6328 6.83315 17.1281 6.58525 15.6142C6.27538 13.848 6.15143 12.1449 6.33736 10.3786C6.39933 9.74784 6.4613 9.05396 6.58525 8.42316C6.77118 7.09849 7.32896 6.53078 8.63044 6.21538C9.18821 6.08922 9.68402 6.02613 10.2418 6.08921C11.4193 6.15229 12.5968 6.15229 13.7744 6.02613C14.3321 5.96305 14.8279 6.02613 15.3857 6.08921C16.4393 6.21537 17.183 6.7831 17.307 7.85545C17.6788 10.5048 17.9887 13.1541 17.4929 15.8035C17.245 17.0651 16.6872 17.5697 15.4477 17.822C14.3321 17.8851 13.1546 17.822 11.9151 17.7589ZM12.163 9.30627C10.7376 9.24319 9.49809 10.3156 9.37413 11.6402C9.25018 13.2803 10.2418 14.3526 11.9151 14.4788C13.2166 14.5419 14.4561 13.4065 14.5801 11.9556C14.704 10.631 13.5884 9.36935 12.163 9.30627ZM16.0055 8.297C15.9435 7.91852 15.7576 7.6662 15.3238 7.6662C14.828 7.6662 14.5801 7.98161 14.5801 8.42316C14.5801 8.86472 14.828 9.18011 15.3238 9.18011C15.8196 9.11703 16.0055 8.80163 16.0055 8.297Z" fill="white"/>
</svg>
