<svg width="24" height="24" viewBox="0 0 24 24" fill="none" xmlns="http://www.w3.org/2000/svg">
<path fill-rule="evenodd" clip-rule="evenodd" d="M12 23C18.0751 23 23 18.0751 23 12C23 5.92487 18.0751 1 12 1C5.92487 1 1 5.92487 1 12C1 18.0751 5.92487 23 12 23ZM12 24C18.6274 24 24 18.6274 24 12C24 5.37258 18.6274 0 12 0C5.37258 0 0 5.37258 0 12C0 18.6274 5.37258 24 12 24Z" fill="white"/>
<path d="M10.3612 13.6243C10.3612 12.7107 10.3612 11.8623 10.3612 10.9487C10.4264 9.774 11.079 9.18667 12.1232 9.64348C12.6452 9.83926 12.9715 9.90452 13.3631 9.70874C14.342 9.18667 15.1903 9.57822 16.104 9.90451C16.6913 10.1003 17.0176 10.5571 17.2134 11.1444C17.7355 12.8412 17.7355 14.5379 17.6702 16.2347C17.6702 16.6915 17.4744 17.0178 16.9524 17.083C16.8218 17.083 16.7566 17.083 16.6261 17.1483C14.7988 17.4746 14.603 17.3441 14.7988 15.5168C14.864 14.7337 14.9946 13.9506 14.7988 13.1675C14.6683 12.7759 14.5378 12.3191 14.0157 12.2539C13.5589 12.1886 13.2326 12.5149 12.9715 12.8412C12.7105 13.1675 12.6452 13.559 12.6452 14.0158C12.6452 14.6684 12.6452 15.2558 12.6452 15.9084C12.6452 17.2136 12.58 17.2788 11.4053 17.2136C10.2959 17.2136 10.2959 17.2136 10.2959 16.1041C10.3612 15.321 10.3612 14.4727 10.3612 13.6243Z" fill="white"/>
<path d="M6.77205 13.4939C6.77205 12.5802 6.77205 11.7319 6.77205 10.8182C6.77205 10.0351 7.22887 9.90461 7.88147 9.83936C8.59932 9.83936 8.72983 10.2309 8.72983 10.8182C8.86035 12.515 8.86035 14.2117 8.79509 15.9085C8.79509 16.4958 8.7951 17.2137 7.88147 17.2137C7.09835 17.2789 6.70679 16.9526 6.70679 16.1695C6.70679 15.2559 6.70679 14.277 6.70679 13.3634C6.70679 13.4939 6.77205 13.4939 6.77205 13.4939Z" fill="white"/>
<path d="M7.3594 6.25C8.33828 6.25 8.86037 6.64156 8.86037 7.22889C8.86037 7.94674 8.01199 8.79511 7.3594 8.79511C6.7068 8.79511 6.25 8.27304 6.25 7.55519C6.31526 6.70682 6.7068 6.25 7.3594 6.25Z" fill="white"/>
</svg>
