<svg width="24" height="24" viewBox="0 0 24 24" fill="none" xmlns="http://www.w3.org/2000/svg">
<path d="M4.75 12.7432C6.1336 11.8627 7.13985 11.2338 8.20899 10.6049C10.7246 9.22131 13.1774 7.83772 15.6301 6.32835C16.5735 5.76233 16.825 5.8881 16.825 7.02013C16.7621 7.83771 16.6363 8.59241 16.5106 9.40999C16.1332 11.7369 15.693 14.0639 15.3156 16.3909C15.1899 17.0827 14.9383 17.2713 14.3094 16.894C13.9949 16.7053 13.6805 16.6424 13.366 16.5166C11.7309 15.8248 11.5422 15.8248 10.3473 17.1455C10.0957 17.3971 10.0328 17.7744 9.5297 17.8373C9.34102 16.6424 9.08946 15.5733 9.96993 14.5041C10.8504 13.3721 11.668 12.303 12.6113 11.1709C12.8629 10.8565 13.0516 10.542 13.1774 10.1647C11.7309 11.108 10.2844 12.1143 9.08946 13.3721C8.64923 13.8752 8.27188 13.9381 7.64298 13.6865C6.8254 13.3721 5.94492 13.1205 4.75 12.7432Z" fill="white"/>
<path fill-rule="evenodd" clip-rule="evenodd" d="M12 23C18.0751 23 23 18.0751 23 12C23 5.92487 18.0751 1 12 1C5.92487 1 1 5.92487 1 12C1 18.0751 5.92487 23 12 23ZM12 24C18.6274 24 24 18.6274 24 12C24 5.37258 18.6274 0 12 0C5.37258 0 0 5.37258 0 12C0 18.6274 5.37258 24 12 24Z" fill="white"/>
</svg>
